<?xml version="1.0" encoding="UTF-8"?>
<svg version="1.1" xmlns="http://www.w3.org/2000/svg" width="584" height="418">
<path d="M0 0 C192.72 0 385.44 0 584 0 C584 137.94 584 275.88 584 418 C391.28 418 198.56 418 0 418 C0 280.06 0 142.12 0 0 Z " fill="#060B42" transform="translate(0,0)"/>
<path d="M0 0 C1.40586934 0.61668276 2.79419596 1.27426081 4.16674805 1.96191406 C5.3840284 2.56824677 5.3840284 2.56824677 6.62590027 3.18682861 C7.49572037 3.62533142 8.36554047 4.06383423 9.26171875 4.515625 C10.6195623 5.19489044 10.6195623 5.19489044 12.00483704 5.88787842 C13.92141039 6.84767528 15.83701146 7.80941572 17.75170898 8.77294922 C20.65708365 10.23469697 23.56555315 11.69012652 26.47460938 13.14453125 C28.34133393 14.08035406 30.20787618 15.01654061 32.07421875 15.953125 C32.93391769 16.38353088 33.79361664 16.81393677 34.67936707 17.25738525 C40.19789723 20.03792932 45.62155379 22.95740707 51 26 C51.34897138 33.66581721 51.61474839 41.33080523 51.77718258 49.00277615 C51.85519913 52.56681367 51.96073554 56.12538863 52.1315918 59.6862793 C53.19987745 82.5534154 53.19987745 82.5534154 49.65655518 88.10479736 C46.26080967 91.35285336 42.35035862 92.95005615 37.92147827 94.35766602 C35.20043391 95.2672882 32.83828909 96.65365119 30.3671875 98.09765625 C29.49674805 98.56445801 28.62630859 99.03125977 27.72949219 99.51220703 C24.66469646 101.18276742 21.64929978 102.92737006 18.6328125 104.68359375 C17.56289062 105.30041016 16.49296875 105.91722656 15.390625 106.55273438 C13.18409803 107.82623828 10.98368885 109.11039246 8.7890625 110.40429688 C7.726875 111.01208984 6.6646875 111.61988281 5.5703125 112.24609375 C4.61914551 112.79966553 3.66797852 113.3532373 2.68798828 113.92358398 C-0.46477377 115.18612058 -1.81352194 115.05573127 -5 114 C-6.87084961 113.15893555 -6.87084961 113.15893555 -8.65234375 112.13671875 C-9.67726929 111.55700317 -9.67726929 111.55700317 -10.72290039 110.96557617 C-11.45371826 110.54381104 -12.18453613 110.1220459 -12.9375 109.6875 C-14.53849714 108.7802516 -16.14008775 107.8740499 -17.7421875 106.96875 C-18.59006836 106.48792969 -19.43794922 106.00710938 -20.31152344 105.51171875 C-25.03547521 102.85546109 -29.80030859 100.27437439 -34.5625 97.6875 C-36.35566293 96.71259666 -38.14863856 95.73734872 -39.94140625 94.76171875 C-40.70138916 94.34881592 -41.46137207 93.93591309 -42.24438477 93.51049805 C-46.17238456 91.35735419 -50.08587862 89.17824695 -54 87 C-54.5605998 79.68370654 -54.98449119 72.37212584 -55.24349213 65.03858757 C-55.36798403 61.63007772 -55.53571127 58.23638153 -55.81054688 54.83642578 C-57.15695844 36.86447142 -57.15695844 36.86447142 -54 29 C-48.43271244 22.62950993 -40.62042628 19.47717964 -32.95458984 16.28491211 C-29.06102253 14.5916511 -25.62515478 12.45653844 -22.109375 10.09765625 C-21.03171875 9.41638672 -19.9540625 8.73511719 -18.84375 8.03320312 C-16.69911533 6.66708167 -14.55876977 5.29421243 -12.421875 3.91601562 C-11.37 3.25408203 -10.318125 2.59214844 -9.234375 1.91015625 C-8.31881836 1.32371338 -7.40326172 0.73727051 -6.45996094 0.13305664 C-3.55627943 -1.20437745 -2.94457189 -0.96923919 0 0 Z " fill="#E2CBB4" transform="translate(143,150)"/>
<path d="M0 0 C0.86625 0.66 1.7325 1.32 2.625 2 C3.429375 2.59296875 4.23375 3.1859375 5.0625 3.796875 C12.23796803 9.96602739 16.79183784 19.80174384 18.625 29 C19.44420387 44.85064226 17.80242414 57.95197327 7.875 70.8125 C1.6171066 77.62592441 -7.84254192 82.29865695 -17.03100586 83.28515625 C-19.83954246 83.40067446 -22.62695688 83.40976961 -25.4375 83.375 C-26.37916016 83.38660156 -27.32082031 83.39820313 -28.29101562 83.41015625 C-39.52072343 83.36326812 -48.29297063 78.95800981 -56.5 71.4375 C-66.83174048 60.6176458 -68.92151669 47.12149643 -68.6875 32.71484375 C-67.69615355 20.93021282 -61.96341954 10.75558049 -53.50390625 2.63671875 C-38.26680992 -9.07767274 -16.29787781 -9.65800166 0 0 Z " fill="#070C42" transform="translate(472.375,182)"/>
<path d="M0 0 C1.39617554 0.00241699 1.39617554 0.00241699 2.82055664 0.00488281 C12.4885213 0.17729865 19.98787873 2.46100284 27.75 8.375 C28.55566406 8.97183594 29.36132812 9.56867188 30.19140625 10.18359375 C37.53585319 16.47402845 43.06148808 27.10419358 43.97314453 36.73144531 C44.58755714 47.06667429 44.74864843 57.04522452 39.75 66.375 C39.09644531 67.67630859 39.09644531 67.67630859 38.4296875 69.00390625 C33.2247618 78.54627004 25.82115989 84.3991098 15.75 88.375 C4.32043139 91.01698691 -10.29314752 91.31844753 -20.84375 85.921875 C-30.89305608 79.46160681 -39.08232698 69.91754953 -41.78051758 58.03955078 C-44.24983079 44.02494632 -43.5369231 28.48410902 -35.30078125 16.55078125 C-25.79916399 5.13860541 -14.66640479 -0.02628152 0 0 Z " fill="#080C43" transform="translate(348.25,175.625)"/>
<path d="M0 0 C29.7 0 59.4 0 90 0 C90 14.45939471 90 14.45939471 86.19116211 18.56079102 C85.65370361 19.07697998 85.11624512 19.59316895 84.5625 20.125 C83.44933721 21.30226737 82.33736805 22.48066446 81.2265625 23.66015625 C80.67516602 24.22492676 80.12376953 24.78969727 79.55566406 25.37158203 C77.37260257 27.65673899 75.40829986 30.09362526 73.4375 32.5625 C70.17221357 36.58358509 66.85428891 40.55333581 63.5 44.5 C59.4498136 49.26905969 55.45647758 54.0791259 51.50390625 58.9296875 C43.32653658 68.95685218 35.10706608 78.94559962 26.6953125 88.77734375 C23.05839706 93.1258296 19.54133683 97.57332896 16 102 C52.63 102.495 52.63 102.495 90 103 C90 106.96 90 110.92 90 115 C59.97 115 29.94 115 -1 115 C-1 100.07870938 -1 100.07870938 5.3125 93.5 C5.94752441 92.78642334 6.58254883 92.07284668 7.23681641 91.33764648 C8.52560579 89.89095051 9.8266361 88.45505924 11.14013672 87.03076172 C13.80934368 84.11628764 16.33981997 81.09326889 18.875 78.0625 C19.76791229 77.01144947 20.66113134 75.96065944 21.5546875 74.91015625 C24.40719025 71.51540458 27.16537513 68.05390514 29.91796875 64.578125 C32.33084092 61.59032832 34.81796079 58.66943803 37.3125 55.75 C41.1174339 51.29361729 44.78817126 46.75842157 48.375 42.125 C52.85337415 36.34367858 57.5566327 30.79494275 62.40966797 25.32470703 C66.21285028 21.01267356 69.52086946 16.63884072 73 12 C48.91 12 24.82 12 0 12 C0 8.04 0 4.08 0 0 Z " fill="#E0CAB3" transform="translate(208,149)"/>
<path d="M0 0 C0.86625 0.66 1.7325 1.32 2.625 2 C3.429375 2.59296875 4.23375 3.1859375 5.0625 3.796875 C12.23796803 9.96602739 16.79183784 19.80174384 18.625 29 C19.44420387 44.85064226 17.80242414 57.95197327 7.875 70.8125 C1.6171066 77.62592441 -7.84254192 82.29865695 -17.03100586 83.28515625 C-19.83954246 83.40067446 -22.62695688 83.40976961 -25.4375 83.375 C-26.37916016 83.38660156 -27.32082031 83.39820313 -28.29101562 83.41015625 C-39.52072343 83.36326812 -48.29297063 78.95800981 -56.5 71.4375 C-66.83174048 60.6176458 -68.92151669 47.12149643 -68.6875 32.71484375 C-67.69615355 20.93021282 -61.96341954 10.75558049 -53.50390625 2.63671875 C-38.26680992 -9.07767274 -16.29787781 -9.65800166 0 0 Z M-48.375 16 C-50.02624415 18.28933555 -51.13723428 20.42925582 -52.375 23 C-52.72820312 23.68707031 -53.08140625 24.37414062 -53.4453125 25.08203125 C-56.38675797 34.31421516 -55.96114631 47.16837427 -51.8125 55.875 C-47.46058363 63.03625206 -42.60288685 68.57209896 -34.375 71 C-25.36951565 72.67543895 -15.85880523 72.63794922 -7.984375 67.4140625 C-5.97183778 65.70713279 -4.16449657 63.93717347 -2.375 62 C-1.6325 61.2575 -0.89 60.515 -0.125 59.75 C6.11292363 49.94754858 7.22626054 39.28201642 5.03515625 27.94921875 C2.40935076 19.39417507 -3.26484779 12.12574112 -11.10546875 7.7421875 C-15.57259229 5.64336011 -19.56251359 5.4343197 -24.4375 5.5625 C-25.20126953 5.55541016 -25.96503906 5.54832031 -26.75195312 5.54101562 C-35.88468482 5.64257723 -42.15656823 9.41577812 -48.375 16 Z " fill="#DFC8B3" transform="translate(472.375,182)"/>
<path d="M0 0 C1.39617554 0.00241699 1.39617554 0.00241699 2.82055664 0.00488281 C12.4885213 0.17729865 19.98787873 2.46100284 27.75 8.375 C28.55566406 8.97183594 29.36132812 9.56867188 30.19140625 10.18359375 C37.53585319 16.47402845 43.06148808 27.10419358 43.97314453 36.73144531 C44.58755714 47.06667429 44.74864843 57.04522452 39.75 66.375 C39.09644531 67.67630859 39.09644531 67.67630859 38.4296875 69.00390625 C33.2247618 78.54627004 25.82115989 84.3991098 15.75 88.375 C4.32043139 91.01698691 -10.29314752 91.31844753 -20.84375 85.921875 C-30.89305608 79.46160681 -39.08232698 69.91754953 -41.78051758 58.03955078 C-44.24983079 44.02494632 -43.5369231 28.48410902 -35.30078125 16.55078125 C-25.79916399 5.13860541 -14.66640479 -0.02628152 0 0 Z M-21.9765625 21.04296875 C-28.23748726 27.78194441 -29.75492889 34.86906156 -29.625 43.8125 C-29.63660156 44.60720703 -29.64820313 45.40191406 -29.66015625 46.22070312 C-29.61546011 55.37596283 -26.9894602 63.6554535 -20.390625 70.2265625 C-13.08888385 76.89695009 -6.33750294 78.74844966 3.640625 78.59375 C11.72186011 77.75569599 18.73828062 74.08928927 23.875 67.8125 C30.4765278 58.36189179 31.9081719 48.74946717 30.75 37.375 C28.90465929 27.83055566 23.45859205 20.79681925 15.84375 14.8984375 C2.89480626 7.27172911 -11.91889424 11.32662407 -21.9765625 21.04296875 Z " fill="#E0CAB3" transform="translate(348.25,175.625)"/>
<path d="M0 0 C0.34901021 7.53540215 0.61476596 15.06996046 0.77718258 22.61162472 C0.85519239 26.11517879 0.96071027 29.61317386 1.1315918 33.11352539 C2.19986584 55.58861384 2.19986584 55.58861384 -1.34344482 61.08331299 C-4.74458712 64.31670871 -8.66078647 65.92504273 -13.07907104 67.34960938 C-15.79346521 68.26865248 -18.15651805 69.65514068 -20.625 71.09765625 C-21.49511719 71.56445801 -22.36523438 72.03125977 -23.26171875 72.51220703 C-26.34837498 74.18928291 -29.39284324 75.93147144 -32.4375 77.68359375 C-33.51644531 78.30041016 -34.59539062 78.91722656 -35.70703125 79.55273438 C-37.93768249 80.82947129 -40.16413907 82.11356 -42.38671875 83.40429688 C-43.45535156 84.01208984 -44.52398437 84.61988281 -45.625 85.24609375 C-47.06746094 86.07645142 -47.06746094 86.07645142 -48.5390625 86.92358398 C-51 88 -51 88 -54 87 C-53.34 87 -52.68 87 -52 87 C-52 73.47 -52 59.94 -52 46 C-47.38 43.36 -42.76 40.72 -38 38 C-38 37.34 -38 36.68 -38 36 C-41.63 34.02 -45.26 32.04 -49 30 C-49 29.34 -49 28.68 -49 28 C-47.11628996 26.67032232 -45.16404069 25.437305 -43.1875 24.25 C-42.59437012 23.89220459 -42.00124023 23.53440918 -41.39013672 23.16577148 C-36.9799511 20.52615436 -32.487129 18.06036122 -27.95703125 15.6328125 C-20.20765901 11.3537668 -12.64252334 6.70871493 -5.1875 1.9375 C-2 0 -2 0 0 0 Z " fill="#756C7C" transform="translate(194,177)"/>
<path d="M0 0 C1.26944532 0.55210367 2.52237227 1.14330717 3.75878906 1.76586914 C4.47923401 2.12616714 5.19967896 2.48646515 5.94195557 2.85768127 C6.70876648 3.24624802 7.47557739 3.63481476 8.265625 4.03515625 C9.05902283 4.43327011 9.85242065 4.83138397 10.66986084 5.24156189 C13.19847903 6.51145949 15.72425542 7.78689811 18.25 9.0625 C19.96596134 9.92549715 21.6821051 10.78813168 23.3984375 11.65039062 C27.60108515 13.76272822 31.80119307 15.88003895 36 18 C33.23194758 20.12963487 30.40656785 22.05268884 27.4375 23.890625 C26.12797363 24.70430542 26.12797363 24.70430542 24.79199219 25.53442383 C22.90665992 26.69289094 21.01653978 27.84359683 19.12207031 28.98706055 C13.15358168 32.57647522 13.15358168 32.57647522 7.546875 36.69140625 C4.60007681 38.92619873 2.63028707 40.25970617 -1 41 C-6.38205029 39.57356465 -10.85284333 37.16809844 -15.63378906 34.36279297 C-18.13376423 32.92295997 -20.67258891 31.59639757 -23.2421875 30.28515625 C-26.58656281 28.57517289 -29.92735052 26.86089204 -33.24609375 25.1015625 C-33.92341553 24.74400879 -34.6007373 24.38645508 -35.29858398 24.01806641 C-37 23 -37 23 -39 21 C-32.22989747 16.4172122 -25.3670573 11.98565553 -18.43237305 7.65649414 C-17.25704764 6.9195929 -16.08489043 6.17761708 -14.91577148 5.4309082 C-13.20528499 4.33918398 -11.48363982 3.26500471 -9.76171875 2.19140625 C-8.75069092 1.55404541 -7.73966309 0.91668457 -6.69799805 0.26000977 C-3.6162949 -1.17919663 -3.09137608 -1.03098375 0 0 Z " fill="#776E7D" transform="translate(143,150)"/>
<path d="M0 0 C0.495 20.295 0.495 20.295 1 41 C2.98 40.01 4.96 39.02 7 38 C8.79325326 39.28946305 10.58455278 40.58164352 12.375 41.875 C13.37273437 42.59429687 14.37046875 43.31359375 15.3984375 44.0546875 C18 46 18 46 20 48 C19.03513672 48.52025757 19.03513672 48.52025757 18.05078125 49.05102539 C12.85217886 51.86863452 7.68860222 54.7359302 2.5625 57.68359375 C1.48355469 58.30041016 0.40460938 58.91722656 -0.70703125 59.55273438 C-2.93768249 60.82947129 -5.16413907 62.11356 -7.38671875 63.40429688 C-8.45535156 64.01208984 -9.52398437 64.61988281 -10.625 65.24609375 C-12.06746094 66.07645142 -12.06746094 66.07645142 -13.5390625 66.92358398 C-16 68 -16 68 -19 67 C-18.34 67 -17.68 67 -17 67 C-17 53.47 -17 39.94 -17 26 C-12.38 23.36 -7.76 20.72 -3 18 C-3 17.34 -3 16.68 -3 16 C-6.63 14.02 -10.26 12.04 -14 10 C-14 9.34 -14 8.68 -14 8 C-11.87850237 6.53058996 -9.77758018 5.18781192 -7.5625 3.875 C-6.95083984 3.50246094 -6.33917969 3.12992188 -5.70898438 2.74609375 C-1.15730884 0 -1.15730884 0 0 0 Z " fill="#756C7C" transform="translate(159,197)"/>
<path d="M0 0 C2.60540782 1.28921216 5.20934373 2.58125596 7.8125 3.875 C8.55048828 4.23980469 9.28847656 4.60460937 10.04882812 4.98046875 C10.76103516 5.33496094 11.47324219 5.68945312 12.20703125 6.0546875 C12.8616333 6.37937012 13.51623535 6.70405273 14.19067383 7.03857422 C16 8 16 8 19 10 C19.266487 13.05075084 19.34757146 15.89626179 19.29296875 18.9453125 C19.28872391 19.8303244 19.28447906 20.7153363 19.28010559 21.62716675 C19.26328259 24.46008445 19.22562425 27.29229652 19.1875 30.125 C19.17245782 32.04295849 19.15876861 33.96092811 19.14648438 35.87890625 C19.11336727 40.58621031 19.06156055 45.29298544 19 50 C14.96139075 49.094804 11.48057848 47.36970633 7.8125 45.5 C7.17119141 45.17902344 6.52988281 44.85804688 5.86914062 44.52734375 C1.14060834 42.14060834 1.14060834 42.14060834 0 41 C-0.08871273 37.97022196 -0.1151935 34.96332978 -0.09765625 31.93359375 C-0.0962413 31.02497086 -0.09482635 30.11634796 -0.09336853 29.18019104 C-0.08775193 26.26592779 -0.07519665 23.35174019 -0.0625 20.4375 C-0.05748714 18.46679798 -0.05292386 16.49609476 -0.04882812 14.52539062 C-0.03777711 9.68356441 -0.02050138 4.84179505 0 0 Z " fill="#070C42" transform="translate(106,189)"/>
<path d="M0 0 C0 12.54 0 25.08 0 38 C-1.65 37.34 -3.3 36.68 -5 36 C-6.09957031 35.566875 -7.19914063 35.13375 -8.33203125 34.6875 C-16.88394268 30.5411187 -16.88394268 30.5411187 -18.86767578 26.02441406 C-20.27228813 20.6283118 -20.44156421 15.10262139 -18 10 C-14.16183069 5.96120658 -5.84986758 0 0 0 Z " fill="#070C42" transform="translate(177,187)"/>
<path d="M0 0 C1.60101563 0.81791016 1.60101563 0.81791016 3.234375 1.65234375 C4.31203125 2.20019531 5.3896875 2.74804688 6.5 3.3125 C7.72976562 3.94478516 7.72976562 3.94478516 8.984375 4.58984375 C8.984375 5.24984375 8.984375 5.90984375 8.984375 6.58984375 C7.0919586 7.90143069 5.13153257 9.11518444 3.1484375 10.28515625 C2.55388763 10.63746307 1.95933777 10.9897699 1.34677124 11.35275269 C0.0861262 12.09758822 -1.17667106 12.83879107 -2.44140625 13.57666016 C-4.38039663 14.70887122 -6.31166913 15.85341597 -8.2421875 17 C-17.73067974 22.58984375 -17.73067974 22.58984375 -20.015625 22.58984375 C-21.93708353 8.137848 -21.93708353 8.137848 -18.80419922 3.98339844 C-12.69416857 -1.32008495 -7.36964768 -3.44616945 0 0 Z " fill="#C6B2A6" transform="translate(146.015625,151.41015625)"/>
<path d="M0 0 C4.22587039 1.97069354 8.41316806 3.99360626 12.56640625 6.11328125 C13.39785156 6.53351563 14.22929687 6.95375 15.0859375 7.38671875 C17.12296984 8.416942 19.15802814 9.45086946 21.19140625 10.48828125 C20.35996094 11.09736328 20.35996094 11.09736328 19.51171875 11.71875 C17.12292556 13.48645922 17.12292556 13.48645922 14.80859375 15.6640625 C11.51355782 18.231562 9.30676123 19.60981957 5.19140625 20.48828125 C-0.7578431 18.79197064 -5.96418705 15.12099213 -11.00610352 11.63085938 C-12.91630718 10.31858548 -12.91630718 10.31858548 -15.80859375 9.48828125 C-14.4762135 5.49114051 -12.68902409 4.83058297 -9.12109375 2.67578125 C-8.08597656 2.02996094 -7.05085937 1.38414062 -5.984375 0.71875 C-2.80859375 -0.51171875 -2.80859375 -0.51171875 0 0 Z " fill="#746B7B" transform="translate(157.80859375,157.51171875)"/>
<path d="M0 0 C0.33 0 0.66 0 1 0 C1.02470469 5.49926424 1.04286223 10.99849622 1.05493164 16.49780273 C1.05996279 18.36890221 1.06678835 20.23999775 1.07543945 22.11108398 C1.08755829 24.79932628 1.09324047 27.48751664 1.09765625 30.17578125 C1.10281754 31.01337479 1.10797882 31.85096832 1.11329651 32.71394348 C1.11362064 36.06375742 1.06684515 38.79946456 0 42 C-1.65820312 43.25854492 -1.65820312 43.25854492 -3.78125 44.48046875 C-4.92013672 45.14272461 -4.92013672 45.14272461 -6.08203125 45.81835938 C-6.87996094 46.27017578 -7.67789063 46.72199219 -8.5 47.1875 C-9.29792969 47.65091797 -10.09585938 48.11433594 -10.91796875 48.59179688 C-16.83087491 52 -16.83087491 52 -18 52 C-18 44.08 -18 36.16 -18 28 C-8 33 -8 33 0 38 C0 25.46 0 12.92 0 0 Z " fill="#6D6578" transform="translate(177,187)"/>
<path d="M0 0 C0 5.28 0 10.56 0 16 C-2.59748082 17.5333805 -5.20187896 19.05179668 -7.8125 20.5625 C-8.91948242 21.21895508 -8.91948242 21.21895508 -10.04882812 21.88867188 C-10.76103516 22.29794922 -11.47324219 22.70722656 -12.20703125 23.12890625 C-12.8616333 23.51119385 -13.51623535 23.89348145 -14.19067383 24.28735352 C-16 25 -16 25 -19 24 C-18.34 24 -17.68 24 -17 24 C-17.17402344 23.02160156 -17.34804687 22.04320312 -17.52734375 21.03515625 C-18.38345343 12.74312245 -18.38345343 12.74312245 -17 9 C-13.26772664 4.86906062 -5.63030779 0 0 0 Z " fill="#AA9B97" transform="translate(159,240)"/>
<path d="M0 0 C3.21652242 0.80413061 5.27185351 1.54016363 8.109375 3.06640625 C8.86347656 3.46923828 9.61757812 3.87207031 10.39453125 4.28710938 C11.56048828 4.91842773 11.56048828 4.91842773 12.75 5.5625 C13.93916016 6.19961914 13.93916016 6.19961914 15.15234375 6.84960938 C17.10371067 7.89582417 19.05279814 8.94605953 21 10 C17.46497273 13.97110675 13.30280018 16.50393198 8.8125 19.25 C8.07580078 19.70890625 7.33910156 20.1678125 6.58007812 20.640625 C1.1460891 24 1.1460891 24 0 24 C0 16.08 0 8.16 0 0 Z " fill="#0B1045" transform="translate(142,167)"/>
<path d="M0 0 C0 11.22 0 22.44 0 34 C-3.75731939 32.49707224 -6.51623332 31.18657823 -9.8125 29 C-10.60269531 28.484375 -11.39289063 27.96875 -12.20703125 27.4375 C-12.79871094 26.963125 -13.39039063 26.48875 -14 26 C-14 25.34 -14 24.68 -14 24 C-10.37 22.02 -6.74 20.04 -3 18 C-3 17.34 -3 16.68 -3 16 C-6.63 14.02 -10.26 12.04 -14 10 C-14 9.34 -14 8.68 -14 8 C-11.87850237 6.53058996 -9.77758018 5.18781192 -7.5625 3.875 C-6.95083984 3.50246094 -6.33917969 3.12992188 -5.70898438 2.74609375 C-1.15730884 0 -1.15730884 0 0 0 Z " fill="#A99A97" transform="translate(159,197)"/>
<path d="M0 0 C0.33 7.59 0.66 15.18 1 23 C-6.875 20.75 -6.875 20.75 -9.96484375 19.0546875 C-10.94614258 18.52294922 -10.94614258 18.52294922 -11.94726562 17.98046875 C-12.60404297 17.61566406 -13.26082031 17.25085938 -13.9375 16.875 C-14.62134766 16.50246094 -15.30519531 16.12992188 -16.00976562 15.74609375 C-17.67657239 14.83692643 -19.33878042 13.91933645 -21 13 C-17.59402396 9.19229346 -13.73008819 6.81132582 -9.375 4.25 C-8.694375 3.83878906 -8.01375 3.42757812 -7.3125 3.00390625 C-2.26274398 0 -2.26274398 0 0 0 Z " fill="#746B7B" transform="translate(125,159)"/>
<path d="M0 0 C4.04301175 1.48518799 7.61146256 3.42877998 11.3125 5.625 C12.38113281 6.25664062 13.44976562 6.88828125 14.55078125 7.5390625 C15.76314453 8.26222656 15.76314453 8.26222656 17 9 C14.52356664 11.76826894 11.79390558 13.44356974 8.5625 15.25 C7.14130859 16.06210938 7.14130859 16.06210938 5.69140625 16.890625 C3 18 3 18 0.98046875 17.89453125 C-1.67227548 16.69634894 -3.89306618 15.14317579 -6.25 13.4375 C-7.14203125 12.79683594 -8.0340625 12.15617188 -8.953125 11.49609375 C-9.62859375 11.00238281 -10.3040625 10.50867188 -11 10 C-8.18143601 7.09747879 -5.5990615 4.89424289 -2 3 C-1.34 3 -0.68 3 0 3 C0 2.01 0 1.02 0 0 Z " fill="#C5B1A5" transform="translate(177,226)"/>
<path d="M0 0 C0 7.26 0 14.52 0 22 C-4.09925581 20.97518605 -7.5231758 19.3501486 -11.25 17.4375 C-11.8996875 17.10814453 -12.549375 16.77878906 -13.21875 16.43945312 C-14.81434294 15.62992435 -16.40742483 14.81544958 -18 14 C-18 12.68 -18 11.36 -18 10 C-16.45532227 8.62792969 -16.45532227 8.62792969 -14.31640625 7.421875 C-13.55392578 6.98359375 -12.79144531 6.5453125 -12.00585938 6.09375 C-10.79639648 5.42859375 -10.79639648 5.42859375 -9.5625 4.75 C-8.76005859 4.29109375 -7.95761719 3.8321875 -7.13085938 3.359375 C-1.2069615 0 -1.2069615 0 0 0 Z " fill="#746B7B" transform="translate(125,217)"/>
<path d="M0 0 C0.33 0.66 0.66 1.32 1 2 C2.3303125 2.433125 2.3303125 2.433125 3.6875 2.875 C7.27446606 4.09321489 9.92992109 5.80708649 13 8 C12 11 12 11 8.83984375 12.82421875 C7.54399131 13.45553148 6.24293771 14.07625399 4.9375 14.6875 C4.27427734 15.00783203 3.61105469 15.32816406 2.92773438 15.65820312 C1.28949142 16.4478598 -0.35471454 17.22512362 -2 18 C-2.05397335 15.5622037 -2.09365616 13.12560315 -2.125 10.6875 C-2.14175781 9.99720703 -2.15851563 9.30691406 -2.17578125 8.59570312 C-2.21217794 4.82864604 -2.14378864 3.21568296 0 0 Z " fill="#C6B3A6" transform="translate(144,205)"/>
<path d="M0 0 C0.66 0.33 1.32 0.66 2 1 C1.34 1.66 0.68 2.32 0 3 C1.03060547 3.61488281 1.03060547 3.61488281 2.08203125 4.2421875 C2.98308594 4.78101563 3.88414062 5.31984375 4.8125 5.875 C5.70582031 6.40867188 6.59914062 6.94234375 7.51953125 7.4921875 C9.37294724 8.61883092 11.19529917 9.79686611 13 11 C10.71125827 12.33858524 8.41930344 13.67101014 6.125 15 C5.47402344 15.3815625 4.82304687 15.763125 4.15234375 16.15625 C-0.7734375 19 -0.7734375 19 -3 19 C-3.08071788 16.20775927 -3.14035408 13.41783434 -3.1875 10.625 C-3.21263672 9.8309375 -3.23777344 9.036875 -3.26367188 8.21875 C-3.29004405 6.14413852 -3.15486462 4.06899135 -3 2 C-2.01 1.34 -1.02 0.68 0 0 Z " fill="#AC9C98" transform="translate(129,155)"/>
<path d="M0 0 C0 5.61 0 11.22 0 17 C-4.62 14.69 -9.24 12.38 -14 10 C-14 9.34 -14 8.68 -14 8 C-11.87850237 6.53058996 -9.77758018 5.18781192 -7.5625 3.875 C-6.95083984 3.50246094 -6.33917969 3.12992188 -5.70898438 2.74609375 C-1.15730884 0 -1.15730884 0 0 0 Z " fill="#766D7C" transform="translate(159,197)"/>
<path d="M0 0 C6.435 2.97 6.435 2.97 13 6 C13 6.66 13 7.32 13 8 C11.07058137 9.28627909 9.07960033 10.48111347 7.0625 11.625 C5.96035156 12.25664062 4.85820312 12.88828125 3.72265625 13.5390625 C1 15 1 15 0 15 C0 10.05 0 5.1 0 0 Z " fill="#AB9B98" transform="translate(142,150)"/>
<path d="M0 0 C0 4.62 0 9.24 0 14 C-8.75 9.375 -8.75 9.375 -11 6 C-9.54550599 4.9944239 -8.08627557 3.99569565 -6.625 3 C-5.40683594 2.1646875 -5.40683594 2.1646875 -4.1640625 1.3125 C-2 0 -2 0 0 0 Z " fill="#AA9B98" transform="translate(177,229)"/>
<path d="M0 0 C0 2.31 0 4.62 0 7 C-1.98 6.34 -3.96 5.68 -6 5 C-4.87312259 1.61936778 -3.78825335 0 0 0 Z " fill="#1C1E4D" transform="translate(126,175)"/>
<path d="M0 0 C1.98 0.99 1.98 0.99 4 2 C3.01 2.495 3.01 2.495 2 3 C1.68758629 5.54941373 1.48696579 8.00361513 1.375 10.5625 C1.33632812 11.27341797 1.29765625 11.98433594 1.2578125 12.71679688 C1.16328217 14.47742425 1.08054183 16.23867728 1 18 C0.67 18 0.34 18 0 18 C0 12.06 0 6.12 0 0 Z " fill="#B9A79F" transform="translate(177,226)"/>
<path d="M0 0 C1.98 0.99 3.96 1.98 6 3 C3.94766315 5.2477975 2.99332739 6.0022242 0 7 C0 4.69 0 2.38 0 0 Z " fill="#0B1045" transform="translate(159,232)"/>
<path d="M0 0 C0 1.98 0 3.96 0 6 C-2.86724686 5.42655063 -3.8614515 5.1385485 -6 3 C-1.125 0 -1.125 0 0 0 Z " fill="#131648" transform="translate(125,233)"/>
</svg>
